{
  "asset": {
    "version": "2.0",
    "generator": "THREE.GLTFExporter"
  },
  "scenes": [
    {
      "nodes": [
        2
      ],
      "name": "Scene"
    }
  ],
  "scene": 0,
  "nodes": [
    {
      "name": "ZBrush_defualt_group",
      "mesh": 0
    },
    {
      "name": "Group59898",
      "mesh": 1
    },
    {
      "matrix": [
        0.1,
        0,
        0,
        0,
        0,
        0.1,
        0,
        0,
        0,
        0,
        0.1,
        0,
        0,
        0,
        0,
        1
      ],
      "name": "LedvinaH_9_9_2019.obj",
      "children": [
        0,
        1
      ]
    }
  ],
  "bufferViews": [
    {
      "buffer": 0,
      "byteOffset": 0,
      "byteLength": 133632,
      "target": 34962,
      "byteStride": 12
    },
    {
      "buffer": 0,
      "byteOffset": 133632,
      "byteLength": 133632,
      "target": 34962,
      "byteStride": 12
    },
    {
      "buffer": 0,
      "byteOffset": 267264,
      "byteLength": 89088,
      "target": 34962,
      "byteStride": 8
    },
    {
      "buffer": 0,
      "byteOffset": 356352,
      "byteLength": 156096,
      "target": 34962,
      "byteStride": 12
    },
    {
      "buffer": 0,
      "byteOffset": 512448,
      "byteLength": 156096,
      "target": 34962,
      "byteStride": 12
    },
    {
      "buffer": 0,
      "byteOffset": 668544,
      "byteLength": 104064,
      "target": 34962,
      "byteStride": 8
    }
  ],
  "buffers": [
    {
      "byteLength": 772608,
      "uri": "data:application/octet-stream;base64,"
    }
  ],
  "accessors": [
    {
      "bufferView": 0,
      "componentType": 5126,
      "count": 11136,
      "max": [
        31.453399658203125,
        33.336204528808594,
        138.10617065429688
      ],
      "min": [
        -27.54005241394043,
        -207.31259155273438,
        -138.10617065429688
      ],
      "type": "VEC3"
    },
    {
      "bufferView": 1,
      "componentType": 5126,
      "count": 11136,
      "max": [
        0.9999049305915833,
        0.9117668867111206,
        0.9998180270195007
      ],
      "min": [
        -0.999596118927002,
        -0.9999908208847046,
        -0.9998180270195007
      ],
      "type": "VEC3"
    },
    {
      "bufferView": 2,
      "componentType": 5126,
      "count": 11136,
      "max": [
        0.9337199926376343,
        0.9980400204658508
      ],
      "min": [
        0.0019499999471008778,
        0.0019500255584716797
      ],
      "type": "VEC2"
    },
    {
      "bufferView": 3,
      "componentType": 5126,
      "count": 13008,
      "max": [
        82.5370101928711,
        190.93124389648438,
        278.26153564453125
      ],
      "min": [
        -83.59282684326172,
        -198.91464233398438,
        -278.26153564453125
      ],
      "type": "VEC3"
    },
    {
      "bufferView": 4,
      "componentType": 5126,
      "count": 13008,
      "max": [
        0.998289167881012,
        0.9998878836631775,
        0.9999040365219116
      ],
      "min": [
        -0.9990505576133728,
        -0.9989672303199768,
        -0.9999040365219116
      ],
      "type": "VEC3"
    },
    {
      "bufferView": 5,
      "componentType": 5126,
      "count": 13008,
      "max": [
        0.9980400204658508,
        0.8990700244903564
      ],
      "min": [
        0.0019499999471008778,
        0.0019500255584716797
      ],
      "type": "VEC2"
    }
  ],
  "materials": [
    {
      "pbrMetallicRoughness": {
        "metallicFactor": 0.5,
        "roughnessFactor": 0.5
      },
      "name": "defaultMat"
    },
    {
      "pbrMetallicRoughness": {
        "metallicFactor": 0.5,
        "roughnessFactor": 0.5
      },
      "name": "defaultMat_1"
    }
  ],
  "meshes": [
    {
      "primitives": [
        {
          "mode": 4,
          "attributes": {
            "POSITION": 0,
            "NORMAL": 1,
            "TEXCOORD_0": 2
          },
          "material": 0
        }
      ]
    },
    {
      "primitives": [
        {
          "mode": 4,
          "attributes": {
            "POSITION": 3,
            "NORMAL": 4,
            "TEXCOORD_0": 5
          },
          "material": 1
        }
      ]
    }
  ]
}