<svg id="Vrstva_1" data-name="Vrstva 1" xmlns="http://www.w3.org/2000/svg" viewBox="0 0 278.11 79.59"><defs><style>.cls-1{fill:#f7a815;}.cls-2{fill:#fff;}</style></defs><path class="cls-1" d="M104.59,68.21a17.88,17.88,0,0,1,3-.23,5,5,0,0,1,3.4,1,3.29,3.29,0,0,1,1.06,2.53,3.59,3.59,0,0,1-.93,2.6,5.07,5.07,0,0,1-3.71,1.33,5.37,5.37,0,0,1-1.26-.11V80.2h-1.57Zm1.57,5.85a5.18,5.18,0,0,0,1.29.13c1.89,0,3-.94,3-2.58s-1.16-2.39-2.87-2.39a6.76,6.76,0,0,0-1.47.12Z" transform="translate(-4.38 -4.58)"/><path class="cls-1" d="M121.55,75.77a4.27,4.27,0,0,1-4.34,4.63A4.16,4.16,0,0,1,113,75.92a4.26,4.26,0,0,1,4.32-4.61A4.12,4.12,0,0,1,121.55,75.77Zm-6.9.09c0,1.91,1.08,3.35,2.63,3.35s2.65-1.42,2.65-3.38c0-1.48-.74-3.33-2.61-3.33S114.65,74.22,114.65,75.86Z" transform="translate(-4.38 -4.58)"/><path class="cls-1" d="M124.05,71.49l1.17,4.43c.23,1,.47,1.87.63,2.77h.05c.2-.88.49-1.82.78-2.75l1.42-4.45h1.33l1.35,4.35c.33,1,.58,2,.78,2.85h.05a25.27,25.27,0,0,1,.67-2.83l1.24-4.37h1.57l-2.81,8.71h-1.44L129.5,76c-.3-1-.55-1.83-.77-2.86h0a24.21,24.21,0,0,1-.79,2.88l-1.4,4.14h-1.44l-2.63-8.71Z" transform="translate(-4.38 -4.58)"/><path class="cls-1" d="M137.37,76.13a2.78,2.78,0,0,0,3,3,5.71,5.71,0,0,0,2.41-.45l.29,1.13a7.14,7.14,0,0,1-2.92.56A4.06,4.06,0,0,1,135.86,76c0-2.63,1.54-4.68,4.08-4.68,2.87,0,3.6,2.48,3.6,4.08a3.59,3.59,0,0,1,0,.74ZM142,75a2.25,2.25,0,0,0-2.19-2.56A2.59,2.59,0,0,0,137.39,75Z" transform="translate(-4.38 -4.58)"/><path class="cls-1" d="M145.5,74.21c0-1,0-1.91-.07-2.72h1.39l.07,1.73h.05a2.64,2.64,0,0,1,2.44-1.91c.16,0,.28,0,.43,0v1.5a2.24,2.24,0,0,0-.54,0,2.21,2.21,0,0,0-2.13,2,5.5,5.5,0,0,0,0,.74V80.2H145.5Z" transform="translate(-4.38 -4.58)"/><path class="cls-1" d="M152.09,76.13a2.79,2.79,0,0,0,3,3,5.65,5.65,0,0,0,2.41-.45l.29,1.13a7.14,7.14,0,0,1-2.92.56A4.06,4.06,0,0,1,150.58,76c0-2.63,1.55-4.68,4.09-4.68,2.86,0,3.6,2.48,3.6,4.08a3.47,3.47,0,0,1-.06.74ZM156.74,75a2.25,2.25,0,0,0-2.2-2.56A2.6,2.6,0,0,0,152.11,75Z" transform="translate(-4.38 -4.58)"/><path class="cls-1" d="M167.74,67.42V78c0,.78,0,1.66.07,2.25H166.4l-.07-1.51h-.05a3.15,3.15,0,0,1-2.94,1.71c-2.1,0-3.74-1.78-3.74-4.43,0-2.9,1.8-4.66,3.9-4.66a2.91,2.91,0,0,1,2.63,1.31h0v-5.2ZM166.17,75a3,3,0,0,0-.07-.66,2.34,2.34,0,0,0-2.29-1.82c-1.64,0-2.61,1.44-2.61,3.35,0,1.76.88,3.22,2.57,3.22a2.4,2.4,0,0,0,2.33-1.89,2.9,2.9,0,0,0,.07-.68Z" transform="translate(-4.38 -4.58)"/><path class="cls-1" d="M174.2,67.42h1.56v5.47h0a3.23,3.23,0,0,1,3-1.58c2.18,0,3.69,1.8,3.69,4.43,0,3.11-2,4.66-3.92,4.66a3.18,3.18,0,0,1-2.94-1.62h0l-.09,1.42h-1.35c0-.59.08-1.47.08-2.25Zm1.56,9.29a2.07,2.07,0,0,0,.07.57,2.44,2.44,0,0,0,2.38,1.86c1.68,0,2.65-1.35,2.65-3.35,0-1.75-.9-3.24-2.61-3.24a2.55,2.55,0,0,0-2.4,1.94,2.71,2.71,0,0,0-.09.67Z" transform="translate(-4.38 -4.58)"/><path class="cls-1" d="M184.89,71.49l1.89,5.15c.21.57.43,1.26.57,1.78h0c.16-.52.34-1.19.56-1.82l1.73-5.11h1.67L189,77.7c-1.14,3-1.91,4.5-3,5.46a4.53,4.53,0,0,1-2,1l-.39-1.31a4.42,4.42,0,0,0,1.38-.77,5,5,0,0,0,1.33-1.77,1,1,0,0,0,.13-.38,1.12,1.12,0,0,0-.13-.41l-3.2-8Z" transform="translate(-4.38 -4.58)"/><path class="cls-1" d="M196.66,68.25a13.21,13.21,0,0,1,2.86-.27,5,5,0,0,1,3.32.88,2.56,2.56,0,0,1,1,2.14,2.87,2.87,0,0,1-2.05,2.67v0a3.09,3.09,0,0,1,2.5,3,3.21,3.21,0,0,1-1,2.44c-.83.77-2.2,1.13-4.18,1.13a18.8,18.8,0,0,1-2.43-.14Zm1.57,5h1.42c1.64,0,2.61-.89,2.61-2.06,0-1.4-1.06-2-2.65-2a6.88,6.88,0,0,0-1.38.11Zm0,5.79a7.58,7.58,0,0,0,1.31.08c1.62,0,3.12-.6,3.12-2.36s-1.43-2.34-3.14-2.34h-1.29Z" transform="translate(-4.38 -4.58)"/><path class="cls-1" d="M214.32,75.77A4.27,4.27,0,0,1,210,80.4a4.16,4.16,0,0,1-4.18-4.48,4.26,4.26,0,0,1,4.32-4.61A4.12,4.12,0,0,1,214.32,75.77Zm-6.9.09c0,1.91,1.08,3.35,2.63,3.35s2.65-1.42,2.65-3.38c0-1.48-.74-3.33-2.61-3.33S207.42,74.22,207.42,75.86Z" transform="translate(-4.38 -4.58)"/><path class="cls-1" d="M223.82,67.42V78c0,.78,0,1.66.08,2.25h-1.41l-.07-1.51h0a3.16,3.16,0,0,1-2.94,1.71c-2.11,0-3.74-1.78-3.74-4.43,0-2.9,1.8-4.66,3.9-4.66a2.92,2.92,0,0,1,2.63,1.31h0v-5.2ZM222.26,75a3,3,0,0,0-.07-.66,2.34,2.34,0,0,0-2.29-1.82c-1.64,0-2.61,1.44-2.61,3.35,0,1.76.88,3.22,2.57,3.22a2.41,2.41,0,0,0,2.33-1.89,2.9,2.9,0,0,0,.07-.68Z" transform="translate(-4.38 -4.58)"/><path class="cls-1" d="M227,71.49l1.89,5.15c.22.57.44,1.26.58,1.78h0c.16-.52.34-1.19.55-1.82l1.73-5.11h1.68l-2.38,6.21c-1.13,3-1.91,4.5-3,5.46a4.51,4.51,0,0,1-1.94,1l-.4-1.31a4.35,4.35,0,0,0,1.39-.77,5.16,5.16,0,0,0,1.33-1.77,1.21,1.21,0,0,0,.13-.38,1.12,1.12,0,0,0-.13-.41l-3.21-8Z" transform="translate(-4.38 -4.58)"/><path class="cls-1" d="M235,67.42h1.58V80.2H235Z" transform="translate(-4.38 -4.58)"/><path class="cls-1" d="M241,69a1,1,0,0,1-1,1,.92.92,0,0,1-.95-1,1,1,0,0,1,1-1A1,1,0,0,1,241,69ZM239.19,80.2V71.49h1.59V80.2Z" transform="translate(-4.38 -4.58)"/><path class="cls-1" d="M250.86,78.92c0,2-.41,3.23-1.24,4a4.78,4.78,0,0,1-3.19,1,5.62,5.62,0,0,1-2.9-.73l.4-1.22a4.69,4.69,0,0,0,2.55.7c1.62,0,2.81-.84,2.81-3.06v-1h0a3.11,3.11,0,0,1-2.78,1.46c-2.16,0-3.71-1.84-3.71-4.25,0-3,1.93-4.61,3.95-4.61a2.92,2.92,0,0,1,2.72,1.49h0l.06-1.31h1.4c-.05.61-.07,1.33-.07,2.37Zm-1.59-4a2.2,2.2,0,0,0-.08-.71A2.27,2.27,0,0,0,247,72.53c-1.51,0-2.59,1.28-2.59,3.3,0,1.71.88,3.13,2.57,3.13a2.29,2.29,0,0,0,2.2-1.62,2.77,2.77,0,0,0,.12-.85Z" transform="translate(-4.38 -4.58)"/><path class="cls-1" d="M253.47,67.42h1.58v5.45h0a3,3,0,0,1,1.13-1.13,3.26,3.26,0,0,1,1.62-.43c1.17,0,3.05.72,3.05,3.71V80.2H259.3v-5c0-1.41-.52-2.58-2-2.58a2.3,2.3,0,0,0-2.12,1.57,2,2,0,0,0-.11.76V80.2h-1.58Z" transform="translate(-4.38 -4.58)"/><path class="cls-1" d="M265.29,69.4v2.09h2.27v1.2h-2.27v4.7c0,1.08.31,1.7,1.19,1.7a3,3,0,0,0,.92-.11l.07,1.2a4.2,4.2,0,0,1-1.4.22,2.24,2.24,0,0,1-1.71-.67,3.4,3.4,0,0,1-.61-2.28V72.69H262.4v-1.2h1.35V69.87Z" transform="translate(-4.38 -4.58)"/><path class="cls-1" d="M268.91,79.27A1.08,1.08,0,0,1,270,78.13a1.05,1.05,0,0,1,1.06,1.14,1.07,1.07,0,1,1-2.14,0Z" transform="translate(-4.38 -4.58)"/><path class="cls-1" d="M270.87,82.76a2.49,2.49,0,0,0,1.73-.68c.43-.49.61-1.18.61-3.26V71.49h1.59v7.94c0,1.69-.27,2.79-1.05,3.58a4,4,0,0,1-2.7,1ZM275,69a1,1,0,0,1-2,0,1,1,0,0,1,1-1A1,1,0,0,1,275,69Z" transform="translate(-4.38 -4.58)"/><path class="cls-1" d="M277.17,78.6a4.49,4.49,0,0,0,2.11.61c1.13,0,1.67-.56,1.67-1.29s-.45-1.16-1.6-1.59c-1.58-.58-2.32-1.42-2.32-2.47,0-1.4,1.15-2.55,3-2.55a4,4,0,0,1,2.12.54L281.78,73a3.33,3.33,0,0,0-1.78-.52c-.94,0-1.44.54-1.44,1.19s.5,1,1.64,1.49c1.49.56,2.28,1.32,2.28,2.61,0,1.55-1.2,2.63-3.24,2.63a5,5,0,0,1-2.45-.61Z" transform="translate(-4.38 -4.58)"/><path class="cls-2" d="M63.1,27.82v7.87q0,9.14-4.41,14.36T46.61,55.27q-8.58,0-13.25-6.45t-4.68-18.4q0-12.06,4.66-18.3T47,5.88Q57,5.88,61.52,16.6L51.36,20.78A14.3,14.3,0,0,0,49,17.5a4.17,4.17,0,0,0-3-1q-3.23,0-4.58,3.39t-1.36,11q0,7.06,1.53,10.39a5.08,5.08,0,0,0,4.87,3.32q5.34,0,5.52-7.63H47v-9.1Z" transform="translate(-4.38 -4.58)"/><path class="cls-2" d="M82,20.64q7,0,10.65,4.66t3.66,13q0,8.12-3.8,12.57T82,55.27a12.59,12.59,0,0,1-10.21-4.53Q68,46.2,68,38.26q0-8.3,3.6-13T82,20.64Zm.07,25.49a3.21,3.21,0,0,0,3-1.86q1-1.86,1-6.36t-1-6.26a3.17,3.17,0,0,0-2.95-1.8,3.23,3.23,0,0,0-3,1.74q-1,1.74-1,6.39Q78.15,46.13,82.05,46.13Z" transform="translate(-4.38 -4.58)"/><path class="cls-2" d="M102.58,4.58h10.23V54.11H102.58Z" transform="translate(-4.38 -4.58)"/><path class="cls-2" d="M136.05,44.23h8.61q-2.46,10.91-12.3,10.9a11.64,11.64,0,0,1-9.74-4.67Q119,45.78,119,37.55q0-7.66,3.59-12.28a11.45,11.45,0,0,1,9.53-4.63A12.15,12.15,0,0,1,139,22.88a12.81,12.81,0,0,1,4.81,5.92q1.52,3.69,1.69,11.64h-17q.21,7.2,4,7.2a3.29,3.29,0,0,0,2.32-1A4,4,0,0,0,136.05,44.23Zm-7.42-9.35h7.42a12.36,12.36,0,0,0-1-5,2.81,2.81,0,0,0-2.67-1.64,3.08,3.08,0,0,0-2.92,1.58A11,11,0,0,0,128.63,34.88Z" transform="translate(-4.38 -4.58)"/><path class="cls-2" d="M161.71,21.77v4q4.36-5.1,8.86-5.1,5.42,0,7,5.59A20.89,20.89,0,0,1,182.16,22a9.12,9.12,0,0,1,5-1.34q7.14,0,7.14,10V54.11H184V35q0-4.67-3-4.67T177.92,35V54.11H167.69V34.46a5,5,0,0,0-.83-2.95,2.49,2.49,0,0,0-2.12-1.16,2.59,2.59,0,0,0-2.2,1.12,5.07,5.07,0,0,0-.83,3.06V54.11H151.52V21.77Z" transform="translate(-4.38 -4.58)"/><path class="cls-1" d="M27,44.77a3.39,3.39,0,0,1-.61,1.79,15.32,15.32,0,0,1-1.73,2.15,22.13,22.13,0,0,1-2.84,2.52,23.06,23.06,0,0,1-3.19,2,17.44,17.44,0,0,1-3.33,1.34,11.53,11.53,0,0,1-3.25.5,7.08,7.08,0,0,1-5.7-2.37q-2-2.37-2-6.94a17.74,17.74,0,0,1,.25-3,19.59,19.59,0,0,1,.77-3A16.91,16.91,0,0,1,6.66,37a16.37,16.37,0,0,1,1.77-2.58c.42-.48.89-1,1.41-1.48a10.33,10.33,0,0,1,1.71-1.34,9.23,9.23,0,0,1,2-1A7.53,7.53,0,0,1,16,30.22a3.85,3.85,0,0,1,1.69.36,4.3,4.3,0,0,1,1.27.93,4,4,0,0,1,.78,1.26A3.85,3.85,0,0,1,20,34.16a6.2,6.2,0,0,1-.77,2.89,13.54,13.54,0,0,1-2.18,3,26.14,26.14,0,0,1-3.38,3q-2,1.49-4.38,3a6.42,6.42,0,0,0-.65.41.64.64,0,0,0-.33.55,6.42,6.42,0,0,0,.18,1.47A4,4,0,0,0,9.2,49.8a3.76,3.76,0,0,0,1.33,1.07,4.68,4.68,0,0,0,2.12.42A11.29,11.29,0,0,0,16,50.76a16.78,16.78,0,0,0,3.33-1.46,22.44,22.44,0,0,0,3.16-2.23,28,28,0,0,0,2.87-2.79c.5-.54.9-.82,1.2-.82s.29.1.37.31A3,3,0,0,1,27,44.77Zm-10.87-10A.78.78,0,0,0,16,34.3a1.14,1.14,0,0,0-.34-.35,1.72,1.72,0,0,0-.42-.23,1.23,1.23,0,0,0-.38-.08,3.75,3.75,0,0,0-2.11.74,8.38,8.38,0,0,0-2,2,14.49,14.49,0,0,0-1.64,3.12,16,16,0,0,0-1,3.91c.22-.14.51-.34.87-.61s.74-.56,1.16-.88l1.24-1,1.11-.91c.72-.61,1.31-1.16,1.78-1.63a11.46,11.46,0,0,0,1.12-1.31A4.11,4.11,0,0,0,16,36,4.3,4.3,0,0,0,16.17,34.77Z" transform="translate(-4.38 -4.58)"/></svg>