<?xml version="1.0" encoding="UTF-8" standalone="no"?>
<!-- Created with Inkscape (http://www.inkscape.org/) -->

<svg
   xmlns:svg="http://www.w3.org/2000/svg"
   xmlns="http://www.w3.org/2000/svg"
   version="1.1"
   width="620"
   height="685.17"
   id="svg2">
  <defs
     id="defs4" />
  <g
     transform="translate(931.71,-913.65)"
     id="layer1">
    <path
       d="m -785.15,1588.3 c -3.2,-1 -5.95,-3.5 -7.55,-6.7 -1.24,-2.5 -1.41,-3.4 -1.41,-7.7 0,-4.2 0.17,-5.1 1.42,-7.6 3.03,-6.2 9.32,-8.8 16.24,-6.7 5.33,1.5 8.61,6.2 9.12,12.9 0.7,9.3 -4.31,15.8 -12.53,16.3 -1.86,0.1 -4.05,-0.1 -5.29,-0.5 z m 9.78,-4.6 c 2.44,-2 3.69,-4.5 4.03,-8.3 0.52,-5.7 -1.6,-10.3 -5.59,-12.1 -5.21,-2.4 -11.03,0.3 -12.66,5.8 -2.68,9 1.81,16.8 9.44,16.3 2.29,-0.1 3.28,-0.5 4.78,-1.7 z m 13.23,-9.8 0,-14.6 2.01,0 2.01,0 0,6.1 0,6 7.56,0 7.55,0 0,-6 0,-6.1 2.01,0 2.01,0 0,14.6 0,14.6 -2.01,0 -2.01,0 0,-6.8 0,-6.8 -7.55,0 -7.56,0 0,6.8 0,6.8 -2.01,0 -2.01,0 0,-14.6 z m 280.51,10.9 c -3.17,-1.1 -5.94,-3.5 -7.55,-6.7 -1.21,-2.6 -1.41,-3.5 -1.41,-7.7 0,-4.2 0.2,-5.1 1.41,-7.6 3.07,-6.2 9.31,-8.8 16.26,-6.7 5.33,1.5 8.6,6.2 9.11,12.9 0.7,9.3 -4.28,15.8 -12.54,16.3 -1.86,0.1 -4.02,-0.1 -5.28,-0.5 z m 9.81,-4.6 c 2.42,-2 3.68,-4.6 4.03,-8.3 0.5,-5.7 -1.61,-10.3 -5.64,-12.1 -5.18,-2.4 -11.02,0.3 -12.63,5.8 -2.67,9 1.81,16.7 9.46,16.2 2.27,-0.1 3.27,-0.4 4.78,-1.6 z m -427.6,-7.5 c -3.2,-1 -5.95,-3.5 -7.54,-6.7 -1.24,-2.5 -1.41,-3.5 -1.41,-7.7 0,-4.2 0.17,-5.1 1.41,-7.6 3.03,-6.2 9.32,-8.8 16.24,-6.7 5.33,1.5 8.62,6.2 9.13,12.9 0.7,9.3 -4.32,15.8 -12.54,16.3 -1.86,0.1 -4.04,-0.1 -5.29,-0.5 z m 9.79,-4.6 c 2.44,-2 3.69,-4.5 4.03,-8.3 0.52,-5.7 -1.61,-10.3 -5.6,-12.1 -5.2,-2.4 -11.02,0.3 -12.65,5.8 -2.68,9 1.8,16.8 9.44,16.2 2.29,-0.1 3.28,-0.4 4.78,-1.6 z m 521.76,-3.4 c -3.22,-1.1 -5.94,-3.6 -7.55,-6.8 -1.26,-2.5 -1.41,-3.4 -1.41,-7.6 0,-4.3 0.15,-5.2 1.41,-7.7 3.02,-6.2 9.31,-8.7 16.26,-6.7 5.34,1.6 8.61,6.3 9.11,13 0.71,9.2 -4.33,15.8 -12.53,16.3 -1.87,0.1 -4.03,-0.1 -5.29,-0.5 z m 9.77,-4.7 c 2.46,-1.9 3.72,-4.5 4.02,-8.2 0.56,-5.7 -1.61,-10.3 -5.58,-12.2 -5.19,-2.3 -11.03,0.3 -12.64,5.8 -2.72,9 1.81,16.8 9.41,16.3 2.32,-0.1 3.33,-0.5 4.79,-1.7 z m 13.24,-9.7 0,-14.6 2.01,0 2.01,0 0,6 0,6.1 7.55,0 7.55,0 0,-6.1 0,-6 2.02,0 2.01,0 0,14.6 0,14.6 -2.01,0 -2.02,0 0,-6.8 0,-6.8 -7.55,0 -7.55,0 0,6.8 0,6.8 -2.01,0 -2.01,0 0,-14.6 z m -115.43,11.9 c -0.75,-1.2 -0.65,-1.3 18.12,-17.1 20.64,-17.5 19.23,-15.9 15.41,-17.2 -0.36,-0.1 -0.66,-0.8 -0.66,-1.4 0,-3.1 -0.5,-2.8 -18.67,12.5 -9.82,8.3 -18.28,15.3 -18.73,15.7 -0.8,0.7 -1.01,0.7 -1.86,-0.2 -1.01,-1 -0.86,-1.1 18.62,-17.6 10.83,-9.1 19.63,-16.5 19.63,-16.5 0,-0.1 -2.36,-13.1 -5.18,-28.9 -2.87,-15.9 -5.39,-29 -5.64,-29.3 -0.3,-0.2 -14.19,-5.3 -30.96,-11.3 -16.71,-6.1 -30.65,-11.2 -30.9,-11.4 -0.25,-0.3 -3.12,-15.1 -6.29,-33 l -5.89,-32.6 -31.36,-14.7 -31.36,-14.8 -28.18,15.6 -28.18,15.6 -1.84,-1 c -1.01,-0.5 -14.3,-7.7 -29.52,-16.1 -15.23,-8.3 -27.81,-15.2 -27.96,-15.3 -0.22,0 -59.22,32.2 -59.81,32.7 -0.1,0.1 -2.22,15 -4.71,33 -2.49,18.1 -4.59,32.9 -4.67,33 -0.1,0.1 -13.81,5.8 -30.52,12.6 -16.72,6.8 -30.55,12.5 -30.74,12.7 -0.33,0.2 -8.96,61.6 -8.96,63.5 0,0.6 7.1,6.4 18.9,15.6 18.85,14.7 18.89,14.7 17.89,15.7 -0.99,1 -1,1 -2.91,-0.5 -1.06,-0.7 -8.53,-6.6 -16.61,-12.8 l -14.7,-11.5 -23.42,9.6 c -12.88,5.2 -23.63,9.5 -23.88,9.5 -0.74,0 -1.1,-2.2 -0.43,-2.6 0.33,-0.2 10.46,-4.4 22.5,-9.3 12.05,-4.9 22.01,-8.9 22.15,-9.1 0.14,-0.1 -0.39,-0.7 -1.19,-1.4 -1.25,-1 -1.41,-1.4 -1.24,-3.2 0.12,-1.3 0,-2 -0.32,-1.9 -0.29,0.1 -10.35,4.2 -22.36,9.1 -12.01,4.9 -22.11,9 -22.44,9.1 -0.32,0.2 -0.86,-0.3 -1.18,-1 -0.55,-1.2 -0.47,-1.3 1.3,-2 1.03,-0.5 11.73,-4.8 23.77,-9.7 l 21.9,-8.9 4.12,-29.9 c 2.27,-16.5 4.31,-30.1 4.53,-30.3 0.23,-0.3 14.12,-6 30.87,-12.8 l 30.46,-12.4 4.44,-32.2 4.44,-32.2 -17.28,-17 c -9.51,-9.3 -19.49,-19.1 -22.19,-21.7 l -4.89,-4.7 -24.38,5.5 -24.38,5.5 -0.25,-1.3 c -0.14,-0.7 -0.19,-1.3 -0.11,-1.4 0.1,-0.1 10.95,-2.6 24.16,-5.6 13.21,-3 24.23,-5.7 24.48,-6 0.25,-0.2 7.02,-13.8 15.04,-30.2 l 14.59,-29.8 -15.6,-28.2 -15.61,-28.2 15.09,-30.9 15.1,-30.9 -14.11,-27.6 -14.11,-27.6 -21.99,-4.4 c -12.09,-2.5 -23.06,-4.7 -24.37,-5 -2,-0.4 -2.39,-0.7 -2.39,-1.6 0,-0.6 0.12,-1.3 0.27,-1.4 0.2,-0.2 41.29,7.9 47.86,9.4 0.89,0.2 5.19,-4 24,-23.1 l 22.92,-23.3 -5.74,-31.9 c -3.16,-17.6 -5.75,-32.4 -5.75,-32.96 0,-0.65 5.91,-6.93 17.01,-18.02 l 17.01,-17 0.96,1.05 c 0.95,1.05 0.92,1.08 -15.62,17.63 l -16.56,16.57 5.42,30.33 c 2.99,16.7 5.6,31.1 5.8,32.1 l 0.36,1.8 28.67,13.4 c 15.77,7.5 28.89,13.5 29.15,13.5 0.26,0 13.61,-7 29.68,-15.5 16.05,-8.5 29.32,-15.4 29.47,-15.4 0.15,0.1 12.89,6.8 28.31,15 15.39,8.2 28.23,14.9 28.48,14.9 0.3,0 59.4,-30 59.85,-30.4 0,0 2.31,-10.3 5.03,-22.9 l 4.94,-22.7 1.25,0.3 c 0.71,0.1 1.31,0.3 1.41,0.4 0,0.1 -2.11,10.3 -4.83,22.7 l -4.93,22.6 17.92,17.7 c 9.81,9.7 19.83,19.4 22.14,21.7 l 4.28,4.1 31.92,-5 c 17.51,-2.7 32.01,-5 32.11,-5.2 0.15,-0.1 3.88,-9.6 8.31,-21 4.43,-11.5 8.15,-20.9 8.2,-21 0.41,-0.4 2.27,0.6 2.27,1.2 0,0.3 -3.73,10.3 -8.26,21.9 -5.99,15.6 -8.45,21.4 -9.16,21.7 -0.55,0.2 -15.4,2.6 -33.02,5.3 l -32.06,4.9 -14.7,28 c -8.11,15.3 -15.26,28.9 -15.96,30.2 l -1.21,2.2 16.66,29.2 c 9.16,16 16.67,29.3 16.67,29.6 0,0.3 -6.75,13.3 -14.96,28.8 -8.25,15.5 -14.95,28.3 -14.89,28.5 0.25,0.7 30.4,61.6 30.65,61.8 0.15,0.2 11.12,2.6 24.41,5.4 13.34,2.9 24.27,5.2 24.37,5.3 0.1,0.1 0.1,0.8 -0.1,1.5 l -0.26,1.3 -24.21,-5.2 c -13.34,-2.8 -24.41,-5.2 -24.56,-5.2 -0.15,0 -10.07,10 -22,22.1 l -21.69,22 5.69,31.9 c 3.16,17.7 5.98,32 6.29,32.2 0.3,0.2 14.34,5.3 31.15,11.3 16.82,6.1 30.71,11.2 30.81,11.4 0.15,0.2 2.87,15 5.99,32.8 3.17,17.8 5.79,32.4 5.84,32.5 0,0.1 10.17,3.8 22.45,8.2 12.28,4.4 22.35,8.1 22.45,8.2 0.35,0.4 -0.55,2.3 -1.11,2.3 -0.3,0 -9.31,-3.1 -19.93,-7 -16.01,-5.8 -19.48,-6.9 -20.09,-6.4 -27.23,22.9 -37.14,31.3 -37.8,31.9 -0.7,0.6 -0.9,0.6 -1.61,-0.5 z M -723,1356.9 c 15.71,-8.6 28.76,-15.8 29,-16 0.26,-0.3 -1.56,-8.9 -4.22,-20.3 -2.58,-10.8 -4.7,-20.1 -4.73,-20.5 0,-0.4 0.53,-0.8 1.23,-1 l 1.27,-0.4 4.72,20.2 c 2.59,11.1 4.97,20.6 5.27,21.1 0.3,0.5 13.47,8 29.26,16.6 l 28.71,15.8 27.37,-15.2 c 17.48,-9.6 27.5,-15.4 27.75,-16.1 0.25,-0.5 1.91,-9.6 3.77,-20.1 1.82,-10.5 3.43,-19.6 3.58,-20.3 0.2,-0.8 0.65,-1.1 1.46,-1.1 0.95,0 1.21,0.3 1.21,1.1 0,0.7 -1.56,10.1 -3.53,21 -1.91,10.9 -3.37,20 -3.27,20.2 0.2,0.3 61.31,29.2 61.81,29.2 0.11,0 9.87,-9.8 21.7,-21.9 l 21.44,-21.8 -14.9,-30.4 c -8.2,-16.7 -15.1,-30.5 -15.3,-30.8 -0.15,-0.2 -11.07,2.1 -24.16,5 -13.14,2.9 -24.11,5.3 -24.46,5.3 -0.31,0 -0.71,-0.6 -0.81,-1.3 -0.2,-1 0,-1.3 0.81,-1.5 0.6,-0.2 11.67,-2.6 24.66,-5.5 12.99,-2.9 23.66,-5.3 23.71,-5.4 0.1,-0.1 6.74,-12.7 14.8,-27.9 l 14.7,-27.7 -16.36,-28.7 c -12.34,-21.5 -16.66,-28.7 -17.52,-29 -0.65,-0.1 -10.97,-2.2 -22.95,-4.5 l -21.8,-4.2 0.3,-1.2 c 0.2,-0.7 0.41,-1.4 0.46,-1.4 0,-0.1 10.26,1.9 22.7,4.3 12.68,2.4 22.65,4.1 22.75,3.8 0.1,-0.2 7.15,-13.7 15.7,-29.9 l 15.56,-29.4 -18.73,-18.4 c -10.27,-10.2 -20.13,-19.8 -21.94,-21.5 l -3.28,-3.2 -29.29,15 c -16.11,8.3 -29.4,15.2 -29.55,15.3 -0.25,0.2 7.45,42.7 8.46,46.9 0.15,0.6 -0.15,0.9 -1.01,1.1 -0.7,0.2 -1.36,0.3 -1.46,0.1 -0.15,-0.1 -2.16,-10.5 -4.53,-23.1 -2.31,-12.5 -4.38,-23.3 -4.48,-23.8 -0.2,-0.8 -7.15,-4.7 -27.95,-15.8 -15.22,-8 -27.79,-14.7 -27.92,-14.7 -0.19,0 -57.06,30.1 -57.5,30.4 0,0.1 -2.24,10.2 -4.89,22.7 -2.64,12.4 -4.88,22.6 -4.98,22.7 -0.1,0.1 -0.73,0 -1.43,-0.2 l -1.26,-0.3 4.67,-21.7 c 2.57,-11.9 4.62,-22 4.55,-22.6 -0.1,-0.7 -6.69,-4 -28.43,-14.2 -15.58,-7.3 -28.41,-13.3 -28.5,-13.3 -0.1,0 -10.37,10.4 -22.84,23.1 l -22.66,23 13.78,27 c 7.57,14.8 13.83,27 13.91,27.3 0.1,0.2 10.44,-1.7 23.04,-4.1 l 22.9,-4.5 0.43,1.2 c 0.24,0.7 0.34,1.3 0.23,1.5 -0.12,0.1 -10.5,2.1 -23.09,4.5 l -22.87,4.5 -4.16,8.3 c -2.28,4.6 -8.98,18.1 -14.89,30.2 l -10.74,21.9 15.28,27.7 15.28,27.6 25.14,5.6 25.15,5.5 -0.31,1.3 c -0.17,0.7 -0.34,1.3 -0.39,1.4 0,0 -11.17,-2.4 -24.72,-5.4 -13.55,-3 -24.8,-5.3 -25,-5.1 -0.63,0.6 -29.13,59 -28.98,59.4 0.1,0.2 9.88,10 21.77,21.6 12.92,12.7 21.88,21.1 22.28,21 0.37,-0.2 13.52,-7.3 29.22,-16 z m -47.34,-10.1 c -17.43,-17.3 -17.5,-17.3 -16.46,-18.3 1.2,-1 -0.12,-2.2 23.51,21.2 11.95,11.8 12.64,12.6 11.87,13.4 -0.44,0.5 -0.95,0.9 -1.11,0.9 -0.16,0 -8.18,-7.8 -17.81,-17.2 z m 137.7,16.1 c -0.52,-1.1 0,-1.5 23.19,-14.3 l 23.72,-13.2 0.86,1.1 c 0.5,0.6 0.7,1.2 0.5,1.4 -0.55,0.5 -46.52,25.9 -47.16,26 -0.31,0.1 -0.81,-0.4 -1.11,-1 z m 118.54,-1.7 c -0.75,-0.8 0.41,-2.1 16.61,-18.6 l 17.47,-17.8 1.01,1 1,1 -5.53,5.7 c -12.39,12.6 -29.2,29.5 -29.45,29.5 -0.15,0 -0.65,-0.3 -1.11,-0.8 z M -704.26,1336 c 0,-0.2 -1.8,-8 -3.99,-17.2 -4.06,-17.2 -4.11,-17.6 -2.01,-17.6 1.05,0 9.26,34.2 8.35,34.8 -0.76,0.4 -2.34,0.4 -2.35,0 z m -9.06,-55 0,-14.6 2.14,0 2.14,0 7.43,11.2 7.42,11.2 0,-11.2 0,-11.2 2.01,0 2.01,0 0,14.6 0,14.6 -2.13,0 -2.14,0 -7.43,-11.2 -7.42,-11.2 0,11.2 0,11.2 -2.01,0 -2.02,0 0,-14.6 z m 136.91,-1 0,-14.6 2.16,0 2.11,0 7.45,11.2 7.4,11.2 0,-11.2 0,-11.2 2.02,0 2.01,0 0,14.6 0,14.6 -2.11,0 -2.17,0 -7.4,-11.2 -7.45,-11.2 0,11.2 0,11.2 -2.01,0 -2.01,0 0,-14.6 z m -111.36,-15.5 c -0.73,-0.8 -0.6,-1.1 1.63,-3.5 2.28,-2.5 2.46,-2.6 3.22,-1.7 0.45,0.5 0.81,1 0.81,1.2 0,0.5 -4.06,4.9 -4.51,4.9 -0.2,0 -0.72,-0.4 -1.15,-0.9 z m 90.87,-17.1 c -16.65,-17.4 -16.71,-17.5 -15.72,-18.5 1.16,-1.2 -1.03,-3.2 17.38,16.1 6.59,6.9 13.14,13.8 14.5,15.2 l 2.56,2.7 -1,1 -1.06,1 -16.66,-17.5 z m -167.67,10.8 c -6.32,-11.1 -24.75,-44.8 -24.75,-45.2 0,-0.4 1.98,-1.7 2.24,-1.4 0.1,0.1 5.63,10.1 12.35,22.3 6.71,12.2 12.63,22.9 13.16,23.8 l 0.94,1.5 -1.23,0.8 c -1.21,0.9 -1.24,0.8 -2.71,-1.8 z m 259.23,-2.5 c -0.6,-0.3 -1.06,-0.7 -1.01,-0.9 1.01,-2.5 25.47,-47.8 25.88,-47.8 0.3,0 0.85,0.3 1.3,0.6 0.71,0.6 -0.75,3.6 -11.87,24.4 -6.95,13.1 -12.74,23.9 -12.89,24 -0.1,0.1 -0.75,0 -1.41,-0.3 z m -171.37,-3.3 c -0.74,-0.8 -0.62,-1.1 1.66,-3.4 l 2.45,-2.6 1.03,1.1 1.03,1.1 -2.41,2.3 c -1.31,1.3 -2.52,2.4 -2.68,2.4 -0.15,0 -0.64,-0.4 -1.08,-0.9 z m 11.47,-12.2 c -0.93,-1 -0.91,-1 1.52,-3.5 l 2.47,-2.5 1.01,1 1.02,1 -2.54,2.6 -2.53,2.5 -0.95,-1.1 z m 11.06,-12.1 c -0.91,-1 -0.89,-1 1.54,-3.5 2.45,-2.5 2.47,-2.5 3.45,-1.5 0.99,1 0.98,1 -1.24,3.5 -1.23,1.3 -2.37,2.5 -2.53,2.5 -0.16,0 -0.72,-0.4 -1.22,-1 z m 38.75,-6.4 c -3.8,-1.8 -5.76,-5.2 -5.76,-10.2 0,-4.8 2.06,-8.4 5.78,-10.1 6.7,-3.1 13.83,1.8 13.83,9.5 l 0,1.6 -8.05,0 c -5.2,0 -8.05,0.2 -8.05,0.6 0,0.2 0.33,1.2 0.72,2.2 1.77,4.2 8.19,5.1 11.11,1.5 0.83,-1.1 1.29,-1.2 2.62,-1 l 1.6,0.4 -0.95,1.9 c -1.36,2.6 -3.9,4.1 -7.71,4.3 -2.34,0.2 -3.62,0 -5.15,-0.7 z m 10.34,-13.4 c 0,-1 -1.48,-2.8 -3.03,-3.6 -2.77,-1.4 -7.08,-0.5 -8.74,1.8 -1.61,2.4 -1.27,2.5 5.48,2.5 4.77,0 6.29,-0.1 6.29,-0.7 z m -39.26,-0.8 0,-14.6 9.81,0 9.82,0 0,1.8 0,1.7 -7.8,0 -7.81,0 0,4.5 0,4.6 6.55,0 6.54,0 0,1.7 0,1.8 -6.54,0 -6.55,0 0,6.5 0,6.6 -2.01,0 -2.01,0 0,-14.6 z m 46.79,-11.8 0,-10.9 1.51,0 1.51,0 0,10.9 0,10.8 -1.51,0 -1.51,0 0,-10.8 z m 8.06,0 0,-10.9 1.51,0 1.51,0 0,10.9 0,10.8 -1.51,0 -1.51,0 0,-10.8 z m -78.07,-19.2 c -10.07,-9.6 -19.1,-18.2 -20.06,-19.1 l -1.76,-1.8 1.02,-1 1,-1 14.08,13.5 c 7.75,7.4 16.78,16 20.07,19.2 l 5.98,5.7 -1.01,1 -1.02,1 -18.3,-17.5 z m 47.71,16.5 c -0.77,-0.9 -0.66,-1.1 1.68,-3.4 2.45,-2.4 2.5,-2.4 3.52,-1.5 l 1.04,1 -2.38,2.4 c -1.32,1.3 -2.54,2.4 -2.71,2.4 -0.18,0 -0.69,-0.4 -1.15,-0.9 z m 11.5,-10.7 c -0.93,-1 -0.91,-1 1.52,-3.5 l 2.47,-2.5 1.02,1 1.01,1 -2.54,2.6 -2.53,2.5 -0.95,-1.1 z m 11.16,-10.9 c -0.76,-0.9 -0.66,-1.1 1.66,-3.4 2.46,-2.4 2.51,-2.4 3.52,-1.5 l 1.06,0.9 -2.42,2.4 c -1.31,1.4 -2.51,2.5 -2.67,2.5 -0.2,0 -0.7,-0.4 -1.15,-0.9 z m 11.57,-11.1 c -0.75,-0.9 -0.65,-1.1 1.67,-3.4 2.46,-2.4 2.51,-2.4 3.52,-1.5 l 1.06,1 -2.42,2.4 c -1.31,1.3 -2.52,2.4 -2.67,2.4 -0.2,0 -0.7,-0.4 -1.16,-0.9 z m 10.22,-19.8 0,-14.6 2.17,0 2.11,0 7.45,11.3 7.4,11.1 0,-11.2 0,-11.2 2.01,0 2.02,0 0,14.6 0,14.6 -2.12,0 -2.16,0 -7.4,-11.1 -7.45,-11.3 0,11.3 0,11.1 -2.01,0 -2.02,0 0,-14.6 z m -141.93,-1 0,-14.6 2.14,0 2.14,0 7.42,11.3 7.42,11.1 0,-11.2 0,-11.2 2.01,0 2.02,0 0,14.6 0,14.6 -2.14,0 -2.14,0 -7.43,-11.1 -7.42,-11.3 0,11.3 0,11.1 -2.01,0 -2.01,0 0,-14.6 z m -50.25,-3.6 c -4.68,-8.8 -19.72,-38.5 -19.72,-39 0,-0.2 0.51,-0.7 1.13,-1 1.1,-0.5 1.54,0.2 12.32,21.5 l 11.19,22 -1.22,0.5 c -1.18,0.6 -1.32,0.4 -3.7,-4 z m 239.4,-0.5 c -17.72,-3.5 -18.53,-3.7 -18.53,-4.7 0,-0.7 0.21,-1.3 0.46,-1.4 0.2,-0.1 9.01,1.4 19.48,3.4 l 19.08,3.7 0.15,1.3 c 0.15,1.1 -0.1,1.3 -1.01,1.3 -0.6,0 -9.46,-1.7 -19.63,-3.6 z m 28.14,-63.4 c -17.52,-17.2 -17.52,-17.2 -16.51,-18.2 1,-1 1,-1 18.62,16.3 16.51,16.2 17.57,17.4 16.81,18.2 -0.45,0.5 -0.95,0.9 -1.11,0.9 -0.2,0 -8.2,-7.7 -17.81,-17.2 z m -226.6,-1.5 c -12.46,-5.8 -22.73,-10.6 -22.82,-10.7 -0.1,-0.1 0.13,-0.7 0.5,-1.4 l 0.67,-1.2 22.4,10.5 c 12.32,5.8 22.56,10.7 22.76,10.9 0.41,0.4 -0.1,2.5 -0.55,2.5 -0.17,0 -10.51,-4.7 -22.96,-10.6 z m 116.83,-2.4 c -12.98,-6.9 -23.69,-12.7 -23.8,-12.8 -0.1,-0.1 0.21,-0.6 0.7,-1.2 l 0.9,-1.1 23.56,12.5 c 12.97,6.9 23.69,12.7 23.84,12.8 0.45,0.4 -0.35,2.3 -1.01,2.3 -0.3,0 -11.22,-5.6 -24.19,-12.5 z M -890.88,1365 c -0.91,-0.5 -2.03,-1.8 -2.51,-2.7 -0.74,-1.6 -0.76,-1.9 -0.11,-2.3 1.25,-0.8 1.85,-0.6 2.51,1.1 0.74,1.7 1.85,2.4 4,2.4 2.97,0 4.96,-3.4 3.54,-6 -0.6,-1.1 -3.53,-2.2 -4.75,-1.7 -0.7,0.3 -0.85,0.1 -0.71,-0.8 0.12,-0.8 0.75,-1.3 2.13,-1.8 2.99,-1 3.7,-2.9 1.82,-4.8 -1.88,-1.8 -5.72,-0.7 -6.62,2 -0.15,0.5 -0.6,0.6 -1.36,0.3 -1.43,-0.4 -1.08,-1.9 0.93,-4 2,-2 5.59,-2.4 8.01,-0.7 2.78,1.9 3.3,5.4 1.08,7.3 -0.92,0.8 -0.9,0.9 0.77,2.5 5.3,4.9 -2.38,13.1 -8.73,9.2 z m 537.06,-3.5 c -0.91,-0.5 -2.02,-1.8 -2.47,-2.8 -0.76,-1.5 -0.76,-1.8 -0.15,-2.2 1.26,-0.8 1.86,-0.6 2.51,1 0.76,1.8 1.87,2.5 4.03,2.5 2.97,0 4.93,-3.4 3.52,-6 -0.6,-1.2 -3.52,-2.2 -4.73,-1.8 -0.7,0.3 -0.85,0.2 -0.7,-0.7 0.1,-0.8 0.75,-1.4 2.11,-1.8 2.97,-1 3.68,-2.9 1.81,-4.8 -1.86,-1.9 -5.73,-0.7 -6.59,2 -0.15,0.5 -0.6,0.6 -1.36,0.3 -1.46,-0.4 -1.11,-1.9 0.91,-4 2.01,-2 5.59,-2.4 8,-0.7 2.77,1.9 3.32,5.4 1.11,7.3 -0.96,0.8 -0.91,0.8 0.75,2.4 5.29,5 -2.36,13.2 -8.75,9.3 z m -514.69,-4.2 c -3.18,-1.2 -4.83,-2.8 -6.78,-6.9 -1.17,-2.3 -1.35,-3.3 -1.36,-7.5 0,-5.3 1.03,-8.5 3.67,-11.2 3,-3.2 8.58,-4.6 13.11,-3.4 2.64,0.7 5.8,3.5 6.86,6.1 l 0.76,1.9 -1.89,0.5 c -1.03,0.3 -1.94,0.4 -2.01,0.2 -0.51,-1.5 -2.4,-3.8 -3.77,-4.7 -3.64,-2.2 -9.21,-0.5 -11.45,3.5 -1.1,2 -1.26,3 -1.26,7.1 0,4.2 0.16,5.1 1.26,7 1.68,3 4.79,4.7 8.21,4.4 3.03,-0.2 4.77,-1.5 6.38,-4.5 1.22,-2.3 1.33,-2.4 3.02,-2.1 0.98,0.2 1.84,0.4 1.93,0.5 0.53,0.5 -2.37,5.6 -4,7 -3.23,2.7 -8.43,3.6 -12.68,2.1 z m -53.2,-14.4 0,-14.6 2.01,0 2.02,0 0,6 0,6.1 7.55,0 7.55,0 0,-6.1 0,-6 2.01,0 2.01,0 0,14.6 0,14.6 -2.01,0 -2.01,0 0,-6.8 0,-6.8 -7.55,0 -7.55,0 0,6.8 0,6.8 -2.02,0 -2.01,0 0,-14.6 z m 515.78,10.9 c -3.17,-1.2 -4.83,-2.9 -6.79,-6.9 -1.16,-2.4 -1.36,-3.4 -1.36,-7.5 0,-5.3 1.06,-8.5 3.67,-11.3 3.03,-3.1 8.61,-4.5 13.14,-3.3 2.62,0.7 5.79,3.5 6.85,6.1 l 0.76,1.9 -1.92,0.5 c -1,0.3 -1.91,0.4 -2.01,0.2 -0.5,-1.5 -2.37,-3.9 -3.73,-4.7 -3.67,-2.2 -9.26,-0.5 -11.47,3.5 -1.11,2 -1.26,2.9 -1.26,7.1 0,4.1 0.15,5 1.26,7 1.66,3 4.78,4.7 8.2,4.4 3.02,-0.3 4.78,-1.5 6.39,-4.5 1.21,-2.4 1.31,-2.5 3.03,-2.1 0.95,0.1 1.81,0.3 1.91,0.4 0.55,0.6 -2.37,5.6 -3.98,7 -3.22,2.8 -8.46,3.7 -12.69,2.2 z m 21.3,-14.4 0,-14.6 2.01,0 2.02,0 0,6 0,6 7.55,0 7.55,0 0,-6 0,-6 2.01,0 2.01,0 0,14.6 0,14.6 -2.01,0 -2.01,0 0,-6.8 0,-6.8 -7.55,0 -7.55,0 0,6.8 0,6.8 -2.02,0 -2.01,0 0,-14.6 z m -506.25,-232.1 c -0.91,-0.5 -2.03,-1.8 -2.51,-2.7 -0.74,-1.6 -0.76,-1.9 -0.11,-2.3 1.25,-0.8 1.85,-0.6 2.51,1 0.74,1.8 1.85,2.5 4,2.5 2.97,0 4.96,-3.4 3.54,-6 -0.6,-1.1 -3.53,-2.2 -4.75,-1.7 -0.7,0.3 -0.85,0.1 -0.71,-0.8 0.12,-0.8 0.75,-1.4 2.13,-1.8 2.99,-1 3.7,-2.9 1.82,-4.8 -1.88,-1.9 -5.72,-0.7 -6.62,2 -0.15,0.5 -0.6,0.6 -1.36,0.3 -1.43,-0.4 -1.08,-1.9 0.93,-4 2,-2 5.59,-2.4 8.01,-0.7 2.78,1.9 3.3,5.4 1.08,7.3 -0.92,0.8 -0.9,0.9 0.77,2.5 5.3,4.9 -2.38,13.1 -8.73,9.2 z m 22.87,-7.7 c -3.17,-1.2 -4.83,-2.8 -6.78,-6.9 -1.17,-2.3 -1.35,-3.3 -1.36,-7.5 0,-5.3 1.03,-8.5 3.67,-11.3 3,-3.1 8.58,-4.5 13.12,-3.3 2.63,0.7 5.79,3.5 6.85,6.1 l 0.76,1.9 -1.88,0.5 c -1.04,0.3 -1.94,0.4 -2.01,0.2 -0.52,-1.5 -2.4,-3.8 -3.77,-4.7 -3.64,-2.2 -9.22,-0.5 -11.46,3.5 -1.1,2 -1.26,2.9 -1.26,7.1 0,4.2 0.16,5.1 1.26,7 1.68,3 4.79,4.7 8.22,4.4 3.03,-0.3 4.76,-1.5 6.38,-4.5 1.21,-2.3 1.32,-2.4 3.02,-2.1 0.97,0.2 1.83,0.4 1.92,0.5 0.53,0.5 -2.37,5.5 -4,7 -3.22,2.7 -8.42,3.6 -12.68,2.1 z m -53.2,-14.4 0,-14.6 2.02,0 2.01,0 0,6 0,6.1 7.55,0 7.55,0 0,-6.1 0,-6 2.01,0 2.02,0 0,14.6 0,14.6 -2.02,0 -2.01,0 0,-6.8 0,-6.8 -7.55,0 -7.55,0 0,6.8 0,6.8 -2.01,0 -2.02,0 0,-14.6 z m 509.55,-18 c -0.81,-0.5 13.39,-37.5 14.5,-37.7 2.41,-0.5 2.21,0.4 -5.14,19.4 -7.2,18.6 -7.6,19.4 -9.36,18.3 z m 71.33,-30.9 c 0,-1.3 1.46,-3 6.34,-7.8 4.53,-4.3 5.23,-5.2 5.23,-6.6 0,-3.3 -4.83,-4.9 -7.3,-2.4 -0.7,0.7 -1.25,1.6 -1.25,2 0,0.8 -0.86,1 -1.97,0.3 -0.8,-0.5 -0.35,-2.3 0.91,-3.7 4.23,-4.8 12.78,-1.8 11.98,4.2 -0.35,2.6 -2.01,4.7 -6.39,8.4 -1.97,1.5 -3.53,3 -3.53,3.2 0,0.3 2.27,0.4 5.04,0.4 5.03,0 5.03,0 5.03,1.3 l 0,1.3 -7.05,0 c -4.63,0 -7.04,-0.2 -7.04,-0.6 z m -48.48,-8.2 c -3.17,-1.2 -4.83,-2.8 -6.79,-6.8 -1.16,-2.4 -1.36,-3.4 -1.36,-7.6 0,-5.3 1.05,-8.4 3.67,-11.2 3.02,-3.2 8.61,-4.6 13.14,-3.4 2.62,0.7 5.79,3.5 6.84,6.2 l 0.76,1.8 -1.91,0.5 c -1.01,0.3 -1.92,0.4 -2.02,0.2 -0.5,-1.5 -2.36,-3.8 -3.72,-4.7 -3.68,-2.2 -9.26,-0.5 -11.48,3.6 -1.11,1.9 -1.26,2.8 -1.26,7 0,4.2 0.15,5.1 1.26,7.1 1.66,3 4.78,4.6 8.21,4.3 3.02,-0.2 4.78,-1.5 6.39,-4.5 1.21,-2.3 1.31,-2.4 3.02,-2.1 0.96,0.2 1.81,0.4 1.91,0.5 0.56,0.5 -2.36,5.6 -3.97,7 -3.23,2.7 -8.46,3.6 -12.69,2.1 z m 21.8,-14.4 0,-14.6 2.01,0 2.01,0 0,6.1 0,6 7.55,0 7.55,0 0,-6 0,-6.1 2.02,0 2.01,0 0,14.6 0,14.6 -2.01,0 -2.02,0 0,-6.8 0,-6.8 -7.55,0 -7.55,0 0,6.8 0,6.8 -2.01,0 -2.01,0 0,-14.6 z m -89.96,-14.1 c -0.9,-0.5 -2.06,-1.8 -2.51,-2.8 -0.76,-1.5 -0.76,-1.8 -0.1,-2.2 1.2,-0.8 1.81,-0.6 2.46,1 0.76,1.8 1.86,2.5 4.03,2.5 2.97,0 4.93,-3.4 3.52,-6 -0.6,-1.2 -3.52,-2.21 -4.73,-1.7 -0.7,0.2 -0.85,0.1 -0.7,-0.83 0.1,-0.8 0.75,-1.32 2.11,-1.8 3.02,-1.02 3.73,-2.88 1.81,-4.76 -1.86,-1.88 -5.69,-0.72 -6.59,1.98 -0.15,0.44 -0.61,0.55 -1.36,0.31 -1.46,-0.46 -1.11,-1.92 0.91,-4 2.01,-2.06 5.58,-2.39 8,-0.73 2.82,1.9 3.32,5.41 1.11,7.31 -0.91,0.78 -0.91,0.86 0.75,2.42 5.29,5 -2.36,13.2 -8.71,9.3 z m -52.14,-7.8 c -3.18,-1.1 -4.84,-2.75 -6.8,-6.78 -1.16,-2.4 -1.31,-3.4 -1.36,-7.55 0,-5.29 1.06,-8.46 3.68,-11.25 3.02,-3.16 8.6,-4.6 13.13,-3.37 2.62,0.71 5.79,3.56 6.85,6.16 l 0.75,1.87 -1.86,0.52 c -1.06,0.29 -1.96,0.36 -2.01,0.15 -0.51,-1.49 -2.42,-3.82 -3.78,-4.66 -3.62,-2.22 -9.21,-0.5 -11.47,3.53 -1.11,1.98 -1.26,2.89 -1.26,7.05 0,4.16 0.15,5.07 1.26,7.05 1.71,3.02 4.78,4.68 8.2,4.38 3.07,-0.27 4.78,-1.51 6.39,-4.57 1.21,-2.29 1.36,-2.37 3.02,-2.06 0.96,0.18 1.87,0.39 1.92,0.48 0.55,0.52 -2.37,5.6 -3.98,6.99 -3.22,2.76 -8.41,3.66 -12.68,2.06 z m 21.79,-14.33 0,-14.6 2.01,0 2.02,0 0,6.04 0,6.04 7.55,0 7.55,0 0,-6.04 0,-6.04 2.01,0 2.02,0 0,14.6 0,14.63 -2.02,0 -2.01,0 0,-6.83 0,-6.79 -7.55,0 -7.55,0 0,6.79 0,6.83 -2.02,0 -2.01,0 0,-14.63 z m -264.91,6.65 c -0.77,-0.85 0.1,-1.78 14.17,-15.88 l 14.98,-14.98 0.96,1.05 c 0.95,1.06 0.92,1.09 -13.87,15.89 -8.15,8.15 -14.96,14.82 -15.12,14.82 -0.17,0 -0.67,-0.41 -1.12,-0.9 z m 84.22,-22.79 c 0,-1.29 1.44,-3.05 6.35,-7.77 4.5,-4.33 5.24,-5.26 5.23,-6.64 0,-3.34 -4.82,-4.95 -7.33,-2.45 -0.68,0.68 -1.23,1.59 -1.23,2.02 0,0.85 -0.88,1 -1.95,0.33 -0.8,-0.51 -0.37,-2.34 0.88,-3.76 4.22,-4.8 12.8,-1.74 12,4.28 -0.35,2.53 -2.01,4.69 -6.41,8.31 -1.93,1.59 -3.52,3.07 -3.52,3.3 0,0.22 2.27,0.4 5.04,0.4 5.03,0 5.03,0 5.03,1.26 l 0,1.25 -7.05,0 c -4.65,0 -7.04,-0.18 -7.04,-0.53 z m -48.49,-8.25 c -3.17,-1.13 -4.82,-2.8 -6.78,-6.82 -1.16,-2.4 -1.35,-3.4 -1.35,-7.55 0,-5.29 1.03,-8.46 3.66,-11.25 3.01,-3.16 8.59,-4.6 13.12,-3.37 2.63,0.71 5.79,3.56 6.86,6.16 l 0.76,1.87 -1.89,0.52 c -1.04,0.29 -1.94,0.36 -2.01,0.15 -0.51,-1.49 -2.4,-3.82 -3.77,-4.66 -3.64,-2.22 -9.22,-0.5 -11.46,3.53 -1.09,1.98 -1.25,2.89 -1.25,7.05 0,4.16 0.16,5.07 1.25,7.05 1.69,3.02 4.8,4.68 8.22,4.38 3.03,-0.27 4.77,-1.51 6.38,-4.57 1.21,-2.29 1.33,-2.37 3.02,-2.06 0.97,0.18 1.83,0.39 1.92,0.48 0.54,0.52 -2.37,5.6 -4,6.99 -3.22,2.76 -8.42,3.62 -12.68,2.1 z m 21.31,-14.37 0,-14.6 2.01,0 2.01,0 0,6.04 0,6.04 7.55,0 7.55,0 0,-6.04 0,-6.04 2.02,0 2.01,0 0,14.6 0,14.6 -2.01,0 -2.02,0 0,-6.8 0,-6.79 -7.55,0 -7.55,0 0,6.79 0,6.8 -2.01,0 -2.01,0 0,-14.6 z"
       id="path2846"
       style="fill:#000000" />
  </g>
</svg>
